<svg width="32" height="27" viewBox="0 0 32 27" fill="none" xmlns="http://www.w3.org/2000/svg">
<path opacity="0.75" d="M4.57143 0C2.47432 0 0 1.91041 0 5.28261C0 7.81213 1.53501 9.74925 3.19643 10.9894C4.14494 11.6974 5.1096 12.1994 6.03125 12.521C5.71238 13.8088 5.71429 15.0293 5.71429 15.5956C5.71429 19.648 2.28571 21.2314 2.28571 22.3043C2.28571 23.173 4.15671 25.7148 4.66071 26.6492C4.77843 26.8687 5.00211 27 5.24554 27H7.32589C7.71904 27 8.03096 26.6494 7.99554 26.248C7.93496 25.5694 7.69514 25.0522 6.75 24.5673L5.98438 23.1252L7.87054 21.5615C7.87054 21.5615 10.4299 21.6329 11.8973 19.3673C11.8973 19.3673 13.9739 21.1304 21.5647 21.1304C21.5647 21.1304 24.0444 24.4858 25.2924 26.0577C25.8136 26.715 26.5387 27 27.3638 27H29.0804C29.4644 27 29.7763 26.6456 29.7031 26.2594C29.5454 25.4236 29.0402 24.645 27.6585 24.3656L25.1808 20.0184C25.1808 20.0184 26.2835 18.7201 26.2835 16.4462C26.2835 14.1724 27.0804 12.8718 27.0804 12.8718H28.346C30.8763 12.8718 32 10.8411 32 10.2717C32 9.70239 31.109 9.56589 30.7924 8.67136C30.1136 6.33293 29.6674 5.86957 28.5714 5.86957V3.52174C26.6731 3.52174 25.7143 5.86957 25.7143 5.86957C21.9131 7.09278 23.2171 10.5652 18.2857 10.5652C16.3874 10.5652 13.9589 8.21739 11.4286 8.21739C9.17176 8.21739 7.81285 9.12936 6.98661 10.3222C6.26506 10.0872 5.3417 9.68923 4.54018 9.09095C3.24217 8.12208 2.28571 6.83009 2.28571 5.28261C2.28571 3.08812 3.88911 2.34783 4.57143 2.34783C5.60263 2.34783 5.88393 2.96459 5.88393 2.96459C6.04318 3.22972 6.29844 3.419 6.59356 3.49081C6.88867 3.56262 7.19948 3.51106 7.45759 3.34749C7.7157 3.18391 7.89998 2.92171 7.96989 2.61858C8.0398 2.31544 7.98961 1.99619 7.83036 1.73106C7.83036 1.73106 6.70365 0 4.57143 0ZM12.3125 21.5592C11.4199 22.3985 10.4312 22.8343 9.60491 23.0656L11.2902 26.5712C11.4159 26.8342 11.6742 27 11.9576 27H14.2522C14.6271 27 14.9353 26.643 14.8393 26.2709C14.6633 25.5806 14.1831 25.0592 13.2277 24.5673L12.596 23.2673L13.2634 21.8916C12.908 21.7801 12.5822 21.6684 12.3125 21.5592ZM17.9777 22.7423L17.6562 24.792C17.6254 24.9341 17.6094 25.0754 17.6094 25.2139C17.6059 26.2646 18.4369 27 19.5089 27H21C21.4171 27 21.7533 26.6282 21.7098 26.2021C21.6435 25.5447 21.3933 25.0428 20.4688 24.5673L20.9219 23.171C20.8487 23.0724 20.7716 22.969 20.7076 22.8821C19.7019 22.8645 18.8017 22.8139 17.9777 22.7423Z" fill="#FAB15D"/>
</svg>
