<svg width="33" height="26" viewBox="0 0 33 26" fill="none" xmlns="http://www.w3.org/2000/svg">
<path opacity="0.75" d="M21.0763 0C18.7589 0 17.0746 1.3333 17.0197 1.37712C17.0145 1.38015 17.0093 1.38323 17.0041 1.38635L16.9996 1.39096C16.7995 1.53417 16.6488 1.73974 16.5696 1.97768C16.4903 2.21563 16.4867 2.47351 16.5592 2.71375C16.6317 2.95398 16.7765 3.16401 16.9725 3.3132C17.1685 3.46239 17.4055 3.54295 17.649 3.54314C21.2728 3.54314 22.2188 4.72418 22.2188 4.72418C19.8619 11.1467 17.93 9.44837 13.0791 9.44837C10.7371 9.44837 9.06053 9.99472 7.86001 10.7448C7.81728 10.7235 7.77332 10.705 7.72836 10.6894L6.09724 10.1289C5.23304 9.83076 4.52189 9.19086 4.1158 8.35036L2.67658 5.37699C2.5849 5.181 2.4426 5.01502 2.2654 4.89738C2.08821 4.77974 1.88301 4.71501 1.67247 4.71034C1.47438 4.70591 1.27857 4.7548 1.10427 4.85223C0.929976 4.94966 0.783185 5.09227 0.678311 5.26606C0.573437 5.43985 0.514085 5.63885 0.506082 5.84352C0.498078 6.04819 0.541699 6.2515 0.632661 6.43347L2.07188 9.40685C2.74884 10.808 3.93759 11.8731 5.37429 12.3687L5.94105 12.5648C5.0594 13.8225 4.89455 14.9822 4.89455 14.9822C4.89455 14.9822 4.20149 18.4239 2.40212 20.9797H2.40436L0.846871 23.1596C0.710091 23.3466 0.610565 23.5597 0.554059 23.7868C0.497554 24.0138 0.485193 24.2502 0.517693 24.4822C0.550193 24.7142 0.626907 24.9372 0.743391 25.1384C0.859875 25.3395 1.01381 25.5147 1.19628 25.6539C1.37875 25.7931 1.58613 25.8935 1.80639 25.9492C2.02666 26.0049 2.25543 26.0149 2.47946 25.9786C2.70348 25.9423 2.91831 25.8603 3.11149 25.7376C3.30466 25.6148 3.47235 25.4536 3.60482 25.2633L6.03477 21.8609C9.96675 20.9824 10.35 18.8967 11.9367 18.8967C13.9775 18.8967 16.0906 19.2368 17.6557 19.5542C17.6756 19.8201 17.7534 20.0779 17.8833 20.3085L19.5077 23.1757L20.0209 24.772C20.0921 24.9928 20.2046 25.197 20.3522 25.3729C20.4997 25.5488 20.6793 25.6929 20.8807 25.7971C21.0821 25.9012 21.3014 25.9633 21.526 25.9798C21.7506 25.9963 21.9762 25.9669 22.1898 25.8933C22.4035 25.8197 22.601 25.7033 22.7711 25.5507C22.9412 25.3982 23.0806 25.2125 23.1813 25.0043C23.282 24.7961 23.342 24.5694 23.358 24.3371C23.3739 24.1049 23.3454 23.8717 23.2742 23.6509L22.703 21.8793C22.6652 21.7629 22.6159 21.6508 22.5557 21.5449L21.3753 19.4619C22.8174 18.1387 23.3612 15.0484 23.3612 14.1726C23.3612 10.7085 27.0987 8.26732 28.7678 8.26732H29.6447C29.9492 8.26659 30.248 8.182 30.5104 8.02227C30.7727 7.86253 30.9892 7.6334 31.1375 7.35847L31.142 7.35616L31.1687 7.30542L31.171 7.2985L31.1732 7.29388L32.3491 4.93179C32.4266 4.81531 32.476 4.68135 32.4932 4.5411C32.5104 4.40085 32.4949 4.25838 32.4479 4.1256C32.4009 3.99283 32.3239 3.8736 32.2233 3.77789C32.1226 3.68218 32.0013 3.61276 31.8694 3.57543L31.8493 3.56851H31.8448L29.0735 2.69887C29.0735 2.69887 28.5135 1.18105 26.3691 1.18105C25.1135 1.18105 24.558 1.57961 23.9525 2.04376C23.2271 1.08357 22.4415 0 21.0763 0ZM25.0258 14.9407C24.923 15.8844 24.6418 17.1592 24.1266 18.3639L25.0325 18.583L25.8179 20.26C26.1127 20.8895 26.7257 21.2588 27.362 21.2588C27.6134 21.2588 27.8663 21.2017 28.1073 21.0812C28.9584 20.6549 29.3152 19.5956 28.9017 18.7145L27.7592 16.2763C27.5342 15.7956 27.1117 15.4464 26.6078 15.3236L25.0258 14.9407ZM11.9345 20.666C11.8259 20.6979 11.507 20.9648 11.274 21.1596C10.9415 21.436 10.5462 21.7654 10.04 22.1008L10.879 24.7628C11.1132 25.5104 11.7859 25.983 12.5079 25.983C12.6839 25.983 12.8641 25.9556 13.0412 25.8954C13.9403 25.5918 14.4304 24.5908 14.1368 23.6601L13.2063 20.7121C12.7802 20.6838 12.3526 20.666 11.9345 20.666Z" fill="#FAB15D"/>
</svg>
