<svg width="390" height="844" viewBox="0 0 390 844" fill="none" xmlns="http://www.w3.org/2000/svg">
<g clip-path="url(#clip0_1_22)">
<rect width="390" height="844" fill="white"/>
<g opacity="0.5">
<path d="M20.4195 19.3603C11.5531 22.2009 7.61952 34.9139 11.7395 47.7742C15.1908 58.5468 22.4143 59.7341 27.6682 58.0509C33.4939 56.1846 37.7583 48.9784 33.5058 35.7044C29.6613 23.7043 24.4087 18.0823 20.4195 19.3603ZM43.9572 11.8196C39.968 13.0977 38.9601 20.7252 42.8046 32.7253C47.0572 45.9994 54.7152 49.3859 60.5409 47.5195C65.7947 45.8364 70.9836 40.6726 67.5324 29.8999C63.4124 17.0396 52.8236 8.97912 43.9572 11.8196ZM5.24749 65.2338C-0.420132 67.0495 -4.21966 79.3317 -1.39432 86.7266C2.70136 97.4466 11.0918 99.2477 17.3359 97.2472C26.9277 94.1744 27.9223 82.285 26.8156 78.8305C25.2337 73.8928 20.0038 70.8558 16.8517 68.8256C12.5165 66.0312 8.35329 64.2388 5.24749 65.2338ZM82.9616 40.3367C79.8558 41.3317 77.5092 45.2096 75.6049 50.0029C74.2192 53.4869 71.7278 58.9976 73.3096 63.9352C74.4164 67.3898 82.1347 76.4878 91.7264 73.4149C97.9706 71.4145 103.757 65.0715 100.856 53.9687C98.8632 46.3073 88.6292 38.5209 82.9616 40.3367ZM47.0745 62.087C38.2918 64.9007 36.7993 71.9716 37.5948 80.5037C39.1658 97.313 19.4128 103.73 24.2046 118.687C25.4603 122.607 31.0434 128.742 40.8118 125.613C48.8041 123.052 51.259 117.139 63.4683 113.228C75.6823 109.315 81.1162 112.7 89.1039 110.141C98.8723 107.012 99.8508 98.7743 98.5951 94.8548C93.8033 79.8977 73.9941 86.1551 65.5094 71.5608C61.1989 64.1547 55.8572 59.2732 47.0745 62.087Z" fill="#8CC7F0"/>
</g>
<g opacity="0.5">
<path d="M20.4195 19.3603C11.5531 22.2009 7.61952 34.9139 11.7395 47.7742C15.1908 58.5468 22.4143 59.7341 27.6682 58.0509C33.4939 56.1846 37.7583 48.9784 33.5058 35.7044C29.6613 23.7043 24.4087 18.0823 20.4195 19.3603ZM43.9572 11.8196C39.968 13.0977 38.9601 20.7252 42.8046 32.7253C47.0572 45.9994 54.7152 49.3859 60.5409 47.5195C65.7947 45.8364 70.9836 40.6726 67.5324 29.8999C63.4124 17.0396 52.8236 8.97912 43.9572 11.8196ZM5.24749 65.2338C-0.420132 67.0495 -4.21966 79.3317 -1.39432 86.7266C2.70136 97.4466 11.0918 99.2477 17.3359 97.2472C26.9277 94.1744 27.9223 82.285 26.8156 78.8305C25.2337 73.8928 20.0038 70.8558 16.8517 68.8256C12.5165 66.0312 8.35329 64.2388 5.24749 65.2338ZM82.9616 40.3367C79.8558 41.3317 77.5092 45.2096 75.6049 50.0029C74.2192 53.4869 71.7278 58.9976 73.3096 63.9352C74.4164 67.3898 82.1347 76.4878 91.7264 73.4149C97.9706 71.4145 103.757 65.0715 100.856 53.9687C98.8632 46.3073 88.6292 38.5209 82.9616 40.3367ZM47.0745 62.087C38.2918 64.9007 36.7993 71.9716 37.5948 80.5037C39.1658 97.313 19.4128 103.73 24.2046 118.687C25.4603 122.607 31.0434 128.742 40.8118 125.613C48.8041 123.052 51.259 117.139 63.4683 113.228C75.6823 109.315 81.1162 112.7 89.1039 110.141C98.8723 107.012 99.8508 98.7743 98.5951 94.8548C93.8033 79.8977 73.9941 86.1551 65.5094 71.5608C61.1989 64.1547 55.8572 59.2732 47.0745 62.087Z" fill="#8CC7F0"/>
</g>
<g opacity="0.5">
<path d="M362.691 78.9138C355.887 77.22 348.331 83.8031 345.874 93.6715C343.816 101.938 347.972 105.56 352.003 106.564C356.474 107.677 362.06 104.752 364.596 94.5659C366.888 85.3575 365.752 79.676 362.691 78.9138ZM380.752 83.4105C377.691 82.6484 374.024 87.134 371.731 96.3423C369.195 106.528 372.758 111.731 377.228 112.844C381.26 113.848 386.629 112.597 388.687 104.33C391.144 94.462 387.556 85.1044 380.752 83.4105ZM334.798 102.281C330.449 101.198 323.15 107.558 322.029 113.414C320.405 121.902 325.065 126.38 329.856 127.573C337.216 129.405 342.564 122.185 343.224 119.534C344.167 115.745 342.021 111.728 340.807 109.179C339.138 105.672 337.182 102.874 334.798 102.281ZM394.433 117.128C392.05 116.534 389.01 118.088 385.892 120.403C383.624 122.085 379.845 124.627 378.902 128.416C378.242 131.067 379.58 139.952 386.94 141.784C391.732 142.977 397.951 141.208 400.492 132.948C402.251 127.252 398.782 118.21 394.433 117.128ZM362.832 116.838C356.093 115.16 352.335 119.097 349.464 124.877C343.81 136.264 328.618 132.547 325.76 144.025C325.011 147.032 326.156 153.174 333.652 155.04C339.785 156.567 343.7 153.753 353.069 156.085C362.441 158.418 364.58 162.74 370.709 164.266C378.205 166.132 382.095 161.244 382.844 158.236C385.702 146.759 370.536 142.918 370.885 130.209C371.059 123.759 369.572 118.516 362.832 116.838Z" fill="#8CC7F0"/>
</g>
</g>
<defs>
<clipPath id="clip0_1_22">
<rect width="390" height="844" fill="white"/>
</clipPath>
</defs>
</svg>
