<svg width="33" height="32" viewBox="0 0 33 32" fill="none" xmlns="http://www.w3.org/2000/svg">
<path d="M25.3445 0C23.8792 0 23.2308 0.449958 22.5242 0.973958C21.3855 0.860625 20.0877 1.31677 19.4277 2.52344C18.9131 3.46528 17.9752 5.17999 17.8574 6.41667C17.8423 6.49566 17.8345 6.57585 17.8339 6.65625C17.8339 6.6595 17.8339 6.66342 17.8339 6.66667C17.8339 7.02029 17.9744 7.35943 18.2245 7.60948C18.4745 7.85952 18.8137 8 19.1673 8C17.2699 14.272 5.8336 13.3587 5.8336 25.3333V29.1562C5.10521 28.9617 4.55528 28.6193 4.14606 28.1667C3.51763 27.4716 3.16686 26.4738 3.16686 25.3333C3.16931 25.1549 3.13593 24.9779 3.06871 24.8126C3.00148 24.6474 2.90178 24.4973 2.77551 24.3713C2.64923 24.2452 2.49895 24.1458 2.33356 24.0789C2.16818 24.012 1.99105 23.979 1.81266 23.9818C1.45948 23.9873 1.12293 24.1327 0.876851 24.3861C0.630776 24.6395 0.495289 24.9802 0.500125 25.3333C0.500125 27.0235 1.02421 28.6918 2.16684 29.9557C3.30946 31.2196 5.06512 32 7.16697 32H9.83371V30.6667C9.83371 25.3333 12.4995 23.9996 13.9849 23.2396C13.0862 22.6276 12.5004 21.7093 12.5004 20.6667C12.5004 20.1653 12.642 19.6936 12.8807 19.2656C12.7087 18.711 12.4991 17.292 12.5004 16C14.1485 16 15.3781 17.4818 15.3781 17.4818C15.7368 17.3938 16.1085 17.3333 16.5006 17.3333C16.8926 17.3333 17.2643 17.3938 17.623 17.4818C17.623 17.4818 18.5566 16 20.5007 16C20.502 17.292 20.2924 18.711 20.1204 19.2656C20.3591 19.6936 20.5007 20.1653 20.5007 20.6667C20.5007 21.784 19.8343 22.7671 18.8209 23.3724C19.0156 23.9604 19.1673 25.9613 19.1673 26.6667C19.1673 27.9253 18.8409 29.2224 18.6569 30.0104C18.9715 30.3638 19.1673 30.824 19.1673 31.3333V32H27.1675C27.9049 32 28.5009 31.4027 28.5009 30.6667C28.5009 29.9307 27.9049 29.3333 27.1675 29.3333H26.6336L24.6336 19.3307C25.3723 18.4161 25.8341 17.268 25.8341 16C25.8341 9.304 26.196 8 28.1441 8H29.1676C29.5229 7.99918 29.8717 7.90368 30.1779 7.72334C30.4841 7.54301 30.7367 7.28434 30.9098 6.97396L30.915 6.97135L30.9489 6.90625C30.9497 6.90365 30.9506 6.90104 30.9515 6.89844L32.3239 4.23438C32.4144 4.10288 32.472 3.95164 32.4921 3.79331C32.5121 3.63497 32.494 3.47413 32.4392 3.32424C32.3844 3.17434 32.2945 3.03974 32.177 2.93169C32.0596 2.82363 31.9179 2.74526 31.764 2.70312L31.7405 2.69531H31.7353L28.5009 1.71354C28.5009 1.71354 27.8473 0 25.3445 0ZM14.5005 20C14.3237 20 14.1541 20.0702 14.0291 20.1953C13.9041 20.3203 13.8338 20.4899 13.8338 20.6667C13.8338 20.8435 13.9041 21.013 14.0291 21.1381C14.1541 21.2631 14.3237 21.3333 14.5005 21.3333C14.6773 21.3333 14.8469 21.2631 14.9719 21.1381C15.0969 21.013 15.1672 20.8435 15.1672 20.6667C15.1672 20.4899 15.0969 20.3203 14.9719 20.1953C14.8469 20.0702 14.6773 20 14.5005 20ZM18.5006 20C18.3238 20 18.1542 20.0702 18.0292 20.1953C17.9042 20.3203 17.8339 20.4899 17.8339 20.6667C17.8339 20.8435 17.9042 21.013 18.0292 21.1381C18.1542 21.2631 18.3238 21.3333 18.5006 21.3333C18.6774 21.3333 18.847 21.2631 18.972 21.1381C19.0971 21.013 19.1673 20.8435 19.1673 20.6667C19.1673 20.4899 19.0971 20.3203 18.972 20.1953C18.847 20.0702 18.6774 20 18.5006 20Z" fill="#FAB15D"/>
</svg>
